<?xml version="1.0" encoding="UTF-8"?>
<svg xmlns="http://www.w3.org/2000/svg" xmlns:xlink="http://www.w3.org/1999/xlink" width="64px" height="64px" viewBox="0 0 64 64" version="1.1">
<g id="surface25380">
<path style=" stroke:none;fill-rule:nonzero;fill:#FFFFFF;fill-opacity:1;" d="M 0.988281 32 C 0.988281 14.875 14.875 0.988281 32 0.988281 C 49.125 0.988281 63.011719 14.875 63.011719 32 C 63.011719 49.125 49.125 63.011719 32 63.011719 C 14.875 63.011719 0.988281 49.125 0.988281 32 Z M 0.988281 32 "/>
<path style=" stroke:none;fill-rule:nonzero;fill:rgb(12.54902%,12.941176%,12.941176%);fill-opacity:1;" d="M 42.511719 12.488281 L 21.664062 12.488281 C 17.601562 12.488281 15.523438 14.550781 15.523438 18.625 L 15.523438 58.273438 C 16.023438 58.585938 16.539062 58.898438 17.0625 59.1875 L 17.0625 20.3125 L 46.960938 20.3125 L 46.960938 59.164062 C 47.539062 58.851562 48.101562 58.5 48.648438 58.148438 L 48.648438 18.625 C 48.648438 14.550781 46.585938 12.488281 42.511719 12.488281 Z M 42.511719 12.488281 "/>
<path style=" stroke:none;fill-rule:nonzero;fill:rgb(38.039216%,64.705882%,69.411765%);fill-opacity:1;" d="M 46.960938 59.164062 L 46.960938 20.3125 L 17.0625 20.3125 L 17.0625 59.1875 C 21.488281 61.625 26.585938 63.023438 32 63.023438 C 37.425781 63.011719 42.523438 61.613281 46.960938 59.164062 Z M 46.960938 59.164062 "/>
<path style=" stroke:none;fill-rule:nonzero;fill:rgb(0%,0%,0%);fill-opacity:1;" d="M 35.976562 17.085938 C 35.976562 17.488281 35.648438 17.800781 35.261719 17.800781 L 28.925781 17.800781 C 28.523438 17.800781 28.210938 17.476562 28.210938 17.085938 C 28.210938 16.6875 28.539062 16.375 28.925781 16.375 L 35.261719 16.375 C 35.648438 16.375 35.976562 16.6875 35.976562 17.085938 Z M 35.976562 17.085938 "/>
<path style=" stroke:none;fill-rule:nonzero;fill:rgb(100%,100%,100%);fill-opacity:1;" d="M 58.050781 41.574219 C 58.050781 43.175781 56.75 44.476562 55.148438 44.476562 L 33.125 44.476562 C 31.523438 44.476562 30.226562 43.175781 30.226562 41.574219 L 30.226562 28.75 C 30.226562 27.148438 31.523438 25.851562 33.125 25.851562 L 55.148438 25.851562 C 56.75 25.851562 58.050781 27.148438 58.050781 28.75 Z M 58.050781 41.574219 "/>
<path style=" stroke:none;fill-rule:nonzero;fill:rgb(100%,100%,100%);fill-opacity:1;" d="M 37.335938 48.386719 C 37.113281 48.613281 36.738281 48.613281 36.511719 48.386719 L 33.726562 44.460938 C 33.5 44.238281 33.5 43.863281 33.726562 43.636719 L 40.125 43.636719 C 40.351562 43.863281 40.351562 44.238281 40.125 44.460938 Z M 37.335938 48.386719 "/>
<path style=" stroke:none;fill-rule:nonzero;fill:rgb(71.764706%,79.215686%,76.862745%);fill-opacity:1;" d="M 40 36.636719 C 40 37.085938 39.886719 37.488281 39.664062 37.835938 C 39.4375 38.1875 39.101562 38.476562 38.648438 38.675781 C 38.210938 38.875 37.6875 38.976562 37.074219 38.976562 C 36.351562 38.976562 35.75 38.835938 35.273438 38.5625 C 34.9375 38.363281 34.664062 38.101562 34.460938 37.773438 C 34.25 37.449219 34.148438 37.125 34.148438 36.8125 C 34.148438 36.636719 34.210938 36.476562 34.335938 36.351562 C 34.460938 36.226562 34.625 36.164062 34.8125 36.164062 C 34.976562 36.164062 35.101562 36.210938 35.210938 36.3125 C 35.324219 36.414062 35.414062 36.5625 35.488281 36.761719 C 35.574219 37 35.6875 37.1875 35.789062 37.351562 C 35.898438 37.511719 36.050781 37.636719 36.25 37.738281 C 36.449219 37.835938 36.710938 37.886719 37.023438 37.886719 C 37.460938 37.886719 37.824219 37.789062 38.101562 37.574219 C 38.375 37.375 38.511719 37.113281 38.511719 36.800781 C 38.511719 36.550781 38.4375 36.363281 38.289062 36.199219 C 38.136719 36.050781 37.949219 35.925781 37.710938 35.851562 C 37.476562 35.773438 37.164062 35.6875 36.761719 35.601562 C 36.238281 35.476562 35.789062 35.324219 35.4375 35.164062 C 35.074219 35 34.800781 34.773438 34.585938 34.488281 C 34.375 34.199219 34.273438 33.851562 34.273438 33.425781 C 34.273438 33.023438 34.386719 32.664062 34.601562 32.351562 C 34.824219 32.039062 35.136719 31.789062 35.5625 31.625 C 35.976562 31.449219 36.476562 31.375 37.039062 31.375 C 37.488281 31.375 37.875 31.4375 38.210938 31.539062 C 38.539062 31.648438 38.8125 31.800781 39.039062 31.988281 C 39.25 32.175781 39.414062 32.363281 39.511719 32.574219 C 39.613281 32.773438 39.664062 32.976562 39.664062 33.175781 C 39.664062 33.351562 39.601562 33.511719 39.476562 33.648438 C 39.351562 33.789062 39.1875 33.863281 39 33.863281 C 38.824219 33.863281 38.699219 33.824219 38.613281 33.738281 C 38.523438 33.648438 38.425781 33.511719 38.324219 33.3125 C 38.1875 33.039062 38.023438 32.8125 37.835938 32.664062 C 37.648438 32.511719 37.351562 32.425781 36.9375 32.425781 C 36.550781 32.425781 36.238281 32.511719 36 32.675781 C 35.761719 32.851562 35.648438 33.050781 35.648438 33.289062 C 35.648438 33.4375 35.6875 33.5625 35.773438 33.664062 C 35.851562 33.773438 35.960938 33.863281 36.113281 33.9375 C 36.25 34.011719 36.398438 34.074219 36.539062 34.113281 C 36.675781 34.148438 36.925781 34.226562 37.25 34.300781 C 37.664062 34.398438 38.039062 34.5 38.375 34.625 C 38.710938 34.738281 39 34.886719 39.238281 35.050781 C 39.476562 35.210938 39.664062 35.425781 39.789062 35.6875 C 39.9375 35.949219 40 36.261719 40 36.636719 Z M 40 36.636719 "/>
<path style=" stroke:none;fill-rule:nonzero;fill:rgb(71.764706%,79.215686%,76.862745%);fill-opacity:1;" d="M 37.074219 39.210938 C 36.3125 39.210938 35.664062 39.0625 35.148438 38.761719 C 34.773438 38.550781 34.476562 38.25 34.25 37.886719 C 34.011719 37.523438 33.898438 37.148438 33.898438 36.800781 C 33.898438 36.550781 33.988281 36.335938 34.164062 36.164062 C 34.335938 35.988281 34.550781 35.898438 34.8125 35.898438 C 35.023438 35.898438 35.226562 35.976562 35.375 36.113281 C 35.511719 36.238281 35.625 36.425781 35.710938 36.648438 C 35.800781 36.863281 35.886719 37.050781 35.988281 37.1875 C 36.074219 37.3125 36.199219 37.414062 36.363281 37.5 C 36.523438 37.585938 36.75 37.625 37.023438 37.625 C 37.414062 37.625 37.726562 37.539062 37.949219 37.363281 C 38.164062 37.199219 38.261719 37.011719 38.261719 36.789062 C 38.261719 36.613281 38.210938 36.476562 38.113281 36.363281 C 37.988281 36.238281 37.835938 36.136719 37.625 36.074219 C 37.398438 36 37.085938 35.914062 36.699219 35.824219 C 36.148438 35.699219 35.6875 35.550781 35.324219 35.375 C 34.9375 35.1875 34.613281 34.9375 34.386719 34.625 C 34.148438 34.300781 34.023438 33.886719 34.023438 33.414062 C 34.023438 32.960938 34.148438 32.550781 34.398438 32.1875 C 34.648438 31.835938 35.011719 31.5625 35.460938 31.375 C 35.914062 31.199219 36.4375 31.101562 37.023438 31.101562 C 37.5 31.101562 37.925781 31.164062 38.273438 31.289062 C 38.636719 31.414062 38.9375 31.574219 39.175781 31.773438 C 39.414062 31.988281 39.601562 32.199219 39.710938 32.4375 C 39.824219 32.675781 39.886719 32.914062 39.886719 33.136719 C 39.886719 33.375 39.800781 33.585938 39.636719 33.773438 C 39.3125 34.148438 38.710938 34.148438 38.425781 33.875 C 38.3125 33.773438 38.210938 33.613281 38.085938 33.398438 C 37.960938 33.148438 37.824219 32.949219 37.664062 32.824219 C 37.523438 32.710938 37.261719 32.648438 36.914062 32.648438 C 36.574219 32.648438 36.3125 32.726562 36.125 32.863281 C 35.898438 33.023438 35.875 33.175781 35.875 33.273438 C 35.875 33.363281 35.898438 33.449219 35.949219 33.511719 C 36.011719 33.585938 36.101562 33.664062 36.199219 33.726562 C 36.324219 33.789062 36.449219 33.851562 36.574219 33.886719 C 36.710938 33.925781 36.949219 33.988281 37.273438 34.074219 C 37.699219 34.175781 38.085938 34.289062 38.425781 34.398438 C 38.789062 34.523438 39.085938 34.675781 39.351562 34.863281 C 39.613281 35.050781 39.824219 35.300781 39.976562 35.585938 C 40.125 35.875 40.199219 36.226562 40.199219 36.636719 C 40.199219 37.125 40.074219 37.574219 39.8125 37.976562 C 39.5625 38.375 39.1875 38.675781 38.699219 38.898438 C 38.289062 39.101562 37.726562 39.210938 37.074219 39.210938 Z M 34.824219 36.386719 C 34.699219 36.386719 34.601562 36.425781 34.523438 36.511719 C 34.4375 36.601562 34.398438 36.6875 34.398438 36.800781 C 34.398438 37.0625 34.488281 37.335938 34.675781 37.625 C 34.863281 37.925781 35.113281 38.164062 35.414062 38.335938 C 35.835938 38.585938 36.414062 38.710938 37.085938 38.710938 C 37.648438 38.710938 38.148438 38.613281 38.5625 38.4375 C 38.960938 38.261719 39.261719 38.011719 39.460938 37.699219 C 39.664062 37.386719 39.761719 37.023438 39.761719 36.636719 C 39.761719 36.3125 39.699219 36.023438 39.585938 35.8125 C 39.476562 35.585938 39.3125 35.414062 39.113281 35.261719 C 38.898438 35.113281 38.625 34.976562 38.3125 34.863281 C 37.988281 34.75 37.613281 34.636719 37.210938 34.550781 C 36.875 34.460938 36.625 34.398438 36.488281 34.351562 C 36.324219 34.300781 36.164062 34.238281 36.011719 34.148438 C 35.835938 34.050781 35.699219 33.9375 35.601562 33.800781 C 35.488281 33.648438 35.425781 33.476562 35.425781 33.273438 C 35.425781 33.050781 35.5 32.738281 35.886719 32.460938 C 36.164062 32.261719 36.523438 32.164062 36.960938 32.164062 C 37.4375 32.164062 37.789062 32.261719 38.023438 32.449219 C 38.238281 32.625 38.425781 32.863281 38.574219 33.1875 C 38.6875 33.386719 38.761719 33.488281 38.8125 33.539062 C 38.863281 33.585938 38.960938 33.601562 39.039062 33.601562 C 39.148438 33.601562 39.238281 33.5625 39.324219 33.476562 C 39.414062 33.375 39.449219 33.273438 39.449219 33.164062 C 39.449219 33.011719 39.414062 32.835938 39.324219 32.675781 C 39.238281 32.5 39.101562 32.335938 38.914062 32.164062 C 38.726562 32 38.476562 31.863281 38.175781 31.761719 C 37.875 31.664062 37.5 31.613281 37.085938 31.613281 C 36.5625 31.613281 36.085938 31.6875 35.699219 31.851562 C 35.324219 32 35.039062 32.210938 34.851562 32.488281 C 34.664062 32.761719 34.5625 33.074219 34.5625 33.425781 C 34.5625 33.800781 34.648438 34.101562 34.824219 34.351562 C 35.011719 34.601562 35.261719 34.800781 35.574219 34.949219 C 35.914062 35.113281 36.351562 35.25 36.851562 35.363281 C 37.25 35.449219 37.574219 35.539062 37.824219 35.625 C 38.101562 35.710938 38.324219 35.851562 38.5 36.039062 C 38.699219 36.238281 38.789062 36.5 38.789062 36.800781 C 38.789062 37.1875 38.613281 37.511719 38.273438 37.761719 C 37.960938 38 37.550781 38.125 37.050781 38.125 C 36.6875 38.125 36.386719 38.0625 36.164062 37.949219 C 35.925781 37.824219 35.75 37.675781 35.613281 37.488281 C 35.488281 37.3125 35.386719 37.101562 35.289062 36.851562 C 35.226562 36.6875 35.148438 36.5625 35.0625 36.488281 C 34.988281 36.414062 34.914062 36.386719 34.824219 36.386719 Z M 43.5 37.738281 L 42.324219 33.050781 L 42.324219 38.125 C 42.324219 38.414062 42.261719 38.613281 42.136719 38.761719 C 42.011719 38.898438 41.851562 38.976562 41.636719 38.976562 C 41.4375 38.976562 41.273438 38.898438 41.148438 38.761719 C 41.023438 38.625 40.960938 38.414062 40.960938 38.125 L 40.960938 32.300781 C 40.960938 31.976562 41.050781 31.761719 41.210938 31.648438 C 41.375 31.539062 41.601562 31.476562 41.886719 31.476562 L 42.351562 31.476562 C 42.625 31.476562 42.824219 31.5 42.949219 31.550781 C 43.074219 31.601562 43.164062 31.6875 43.226562 31.824219 C 43.289062 31.949219 43.351562 32.164062 43.4375 32.460938 L 44.5 36.5 L 45.574219 32.460938 C 45.648438 32.164062 45.726562 31.960938 45.773438 31.824219 C 45.835938 31.699219 45.925781 31.601562 46.050781 31.550781 C 46.175781 31.5 46.375 31.476562 46.648438 31.476562 L 47.113281 31.476562 C 47.398438 31.476562 47.625 31.539062 47.789062 31.648438 C 47.949219 31.761719 48.039062 31.976562 48.039062 32.300781 L 48.039062 38.125 C 48.039062 38.414062 47.976562 38.613281 47.851562 38.761719 C 47.726562 38.898438 47.550781 38.976562 47.351562 38.976562 C 47.148438 38.976562 46.988281 38.898438 46.863281 38.761719 C 46.738281 38.625 46.675781 38.414062 46.675781 38.125 L 46.675781 33.050781 L 45.5 37.738281 C 45.425781 38.039062 45.363281 38.261719 45.3125 38.414062 C 45.261719 38.550781 45.175781 38.6875 45.050781 38.800781 C 44.925781 38.914062 44.738281 38.976562 44.511719 38.976562 C 44.335938 38.976562 44.1875 38.9375 44.074219 38.863281 C 43.949219 38.789062 43.863281 38.6875 43.800781 38.574219 C 43.738281 38.460938 43.675781 38.324219 43.636719 38.1875 C 43.574219 38.039062 43.539062 37.886719 43.5 37.738281 Z M 43.5 37.738281 "/>
<path style=" stroke:none;fill-rule:nonzero;fill:rgb(71.764706%,79.215686%,76.862745%);fill-opacity:1;" d="M 47.351562 39.210938 C 47.085938 39.210938 46.863281 39.113281 46.6875 38.925781 C 46.511719 38.738281 46.4375 38.476562 46.4375 38.125 L 46.4375 35.023438 L 45.738281 37.800781 C 45.664062 38.113281 45.585938 38.335938 45.539062 38.488281 C 45.476562 38.675781 45.363281 38.835938 45.199219 38.988281 C 45.023438 39.148438 44.789062 39.226562 44.5 39.226562 C 44.289062 39.226562 44.085938 39.175781 43.925781 39.074219 C 43.761719 38.976562 43.648438 38.851562 43.5625 38.699219 C 43.488281 38.5625 43.425781 38.414062 43.386719 38.25 C 43.351562 38.113281 43.3125 37.960938 43.261719 37.800781 L 42.5625 35.023438 L 42.5625 38.125 C 42.5625 38.476562 42.476562 38.738281 42.3125 38.925781 C 41.976562 39.300781 41.3125 39.3125 40.960938 38.925781 C 40.789062 38.738281 40.710938 38.476562 40.710938 38.125 L 40.710938 32.300781 C 40.710938 31.886719 40.835938 31.601562 41.074219 31.449219 C 41.289062 31.3125 41.5625 31.238281 41.886719 31.238281 L 42.351562 31.238281 C 42.664062 31.238281 42.886719 31.261719 43.050781 31.324219 C 43.238281 31.398438 43.375 31.539062 43.460938 31.726562 C 43.523438 31.863281 43.601562 32.085938 43.6875 32.398438 L 44.523438 35.539062 L 45.363281 32.398438 C 45.4375 32.085938 45.511719 31.875 45.585938 31.726562 C 45.675781 31.539062 45.8125 31.398438 46 31.324219 C 46.164062 31.261719 46.386719 31.238281 46.699219 31.238281 L 47.164062 31.238281 C 47.5 31.238281 47.761719 31.3125 47.976562 31.449219 C 48.210938 31.613281 48.335938 31.898438 48.335938 32.300781 L 48.335938 38.125 C 48.335938 38.460938 48.25 38.738281 48.085938 38.925781 C 47.875 39.113281 47.636719 39.210938 47.351562 39.210938 Z M 46.4375 32.988281 L 46.925781 33.050781 L 46.925781 38.125 C 46.925781 38.335938 46.960938 38.5 47.050781 38.585938 C 47.226562 38.773438 47.523438 38.75 47.675781 38.585938 C 47.761719 38.488281 47.800781 38.335938 47.800781 38.113281 L 47.800781 32.289062 C 47.800781 32.125 47.773438 31.925781 47.664062 31.835938 C 47.539062 31.75 47.351562 31.710938 47.125 31.710938 L 46.664062 31.710938 C 46.335938 31.710938 46.199219 31.75 46.148438 31.773438 C 46.085938 31.800781 46.039062 31.851562 46 31.925781 C 45.949219 32.039062 45.886719 32.238281 45.8125 32.523438 L 44.5 37.449219 L 43.199219 32.523438 C 43.125 32.25 43.0625 32.050781 43.011719 31.925781 C 42.976562 31.851562 42.9375 31.800781 42.863281 31.773438 C 42.8125 31.75 42.675781 31.710938 42.351562 31.710938 L 41.875 31.710938 C 41.636719 31.710938 41.460938 31.75 41.335938 31.835938 C 41.226562 31.914062 41.199219 32.125 41.199219 32.289062 L 41.199219 38.125 C 41.199219 38.351562 41.238281 38.5 41.324219 38.601562 C 41.488281 38.789062 41.800781 38.773438 41.949219 38.601562 C 42.039062 38.5 42.074219 38.351562 42.074219 38.125 L 42.074219 33.050781 L 42.5625 32.988281 L 43.738281 37.675781 C 43.773438 37.824219 43.8125 37.976562 43.851562 38.113281 C 43.886719 38.238281 43.925781 38.351562 43.988281 38.449219 C 44.039062 38.539062 44.101562 38.601562 44.1875 38.648438 C 44.375 38.761719 44.726562 38.75 44.875 38.613281 C 44.976562 38.523438 45.039062 38.425781 45.074219 38.324219 C 45.125 38.1875 45.1875 37.976562 45.261719 37.675781 Z M 46.4375 32.988281 "/>
<path style=" stroke:none;fill-rule:nonzero;fill:rgb(71.764706%,79.215686%,76.862745%);fill-opacity:1;" d="M 54.914062 36.636719 C 54.914062 37.085938 54.800781 37.488281 54.5625 37.835938 C 54.335938 38.1875 54 38.476562 53.550781 38.675781 C 53.113281 38.875 52.585938 38.976562 51.976562 38.976562 C 51.25 38.976562 50.648438 38.835938 50.175781 38.5625 C 49.835938 38.363281 49.5625 38.101562 49.363281 37.773438 C 49.148438 37.449219 49.050781 37.125 49.050781 36.8125 C 49.050781 36.636719 49.113281 36.476562 49.238281 36.351562 C 49.363281 36.226562 49.523438 36.164062 49.710938 36.164062 C 49.875 36.164062 50 36.210938 50.113281 36.3125 C 50.226562 36.414062 50.3125 36.5625 50.386719 36.761719 C 50.476562 37 50.585938 37.1875 50.6875 37.351562 C 50.800781 37.511719 50.949219 37.636719 51.148438 37.738281 C 51.351562 37.835938 51.601562 37.886719 51.925781 37.886719 C 52.363281 37.886719 52.726562 37.789062 53 37.574219 C 53.273438 37.375 53.414062 37.113281 53.414062 36.800781 C 53.414062 36.550781 53.335938 36.363281 53.1875 36.199219 C 53.039062 36.050781 52.851562 35.925781 52.613281 35.851562 C 52.375 35.773438 52.0625 35.6875 51.664062 35.601562 C 51.136719 35.476562 50.6875 35.324219 50.335938 35.164062 C 49.976562 35 49.699219 34.773438 49.488281 34.488281 C 49.273438 34.199219 49.175781 33.851562 49.175781 33.425781 C 49.175781 33.023438 49.289062 32.664062 49.511719 32.351562 C 49.738281 32.039062 50.050781 31.789062 50.476562 31.625 C 50.886719 31.449219 51.386719 31.375 51.949219 31.375 C 52.398438 31.375 52.789062 31.4375 53.125 31.539062 C 53.449219 31.648438 53.726562 31.800781 53.949219 31.988281 C 54.164062 32.175781 54.324219 32.363281 54.425781 32.574219 C 54.523438 32.773438 54.574219 32.976562 54.574219 33.175781 C 54.574219 33.351562 54.511719 33.511719 54.386719 33.648438 C 54.261719 33.789062 54.101562 33.863281 53.914062 33.863281 C 53.738281 33.863281 53.613281 33.824219 53.523438 33.738281 C 53.4375 33.648438 53.335938 33.511719 53.238281 33.3125 C 53.101562 33.039062 52.9375 32.8125 52.761719 32.664062 C 52.574219 32.511719 52.273438 32.425781 51.863281 32.425781 C 51.476562 32.425781 51.164062 32.511719 50.9375 32.675781 C 50.699219 32.851562 50.585938 33.050781 50.585938 33.289062 C 50.585938 33.4375 50.625 33.5625 50.710938 33.664062 C 50.789062 33.773438 50.898438 33.863281 51.039062 33.9375 C 51.175781 34.011719 51.324219 34.074219 51.460938 34.113281 C 51.613281 34.148438 51.851562 34.226562 52.175781 34.300781 C 52.585938 34.398438 52.960938 34.5 53.300781 34.625 C 53.636719 34.738281 53.925781 34.886719 54.164062 35.050781 C 54.398438 35.210938 54.585938 35.425781 54.710938 35.6875 C 54.851562 35.949219 54.914062 36.261719 54.914062 36.636719 Z M 54.914062 36.636719 "/>
<path style=" stroke:none;fill-rule:nonzero;fill:rgb(71.764706%,79.215686%,76.862745%);fill-opacity:1;" d="M 51.988281 39.210938 C 51.226562 39.210938 50.574219 39.0625 50.0625 38.761719 C 49.6875 38.550781 49.386719 38.25 49.164062 37.886719 C 48.925781 37.523438 48.8125 37.148438 48.8125 36.800781 C 48.8125 36.550781 48.898438 36.335938 49.074219 36.164062 C 49.25 35.988281 49.460938 35.898438 49.726562 35.898438 C 49.949219 35.898438 50.136719 35.976562 50.289062 36.113281 C 50.425781 36.238281 50.539062 36.425781 50.625 36.648438 C 50.710938 36.863281 50.800781 37.050781 50.898438 37.1875 C 50.988281 37.3125 51.113281 37.414062 51.273438 37.5 C 51.4375 37.585938 51.664062 37.625 51.9375 37.625 C 52.324219 37.625 52.636719 37.539062 52.863281 37.363281 C 53.074219 37.199219 53.175781 37.011719 53.175781 36.789062 C 53.175781 36.613281 53.125 36.476562 53.023438 36.363281 C 52.898438 36.238281 52.738281 36.136719 52.539062 36.074219 C 52.3125 36 52 35.914062 51.613281 35.824219 C 51.0625 35.699219 50.601562 35.550781 50.238281 35.375 C 49.851562 35.1875 49.523438 34.9375 49.300781 34.625 C 49.0625 34.300781 48.9375 33.886719 48.9375 33.414062 C 48.9375 32.960938 49.0625 32.550781 49.3125 32.1875 C 49.5625 31.835938 49.914062 31.5625 50.375 31.375 C 50.824219 31.199219 51.351562 31.101562 51.9375 31.101562 C 52.414062 31.101562 52.835938 31.164062 53.1875 31.289062 C 53.550781 31.414062 53.851562 31.574219 54.085938 31.773438 C 54.324219 31.988281 54.511719 32.210938 54.625 32.4375 C 54.738281 32.675781 54.800781 32.914062 54.800781 33.136719 C 54.800781 33.375 54.710938 33.585938 54.550781 33.773438 C 54.210938 34.148438 53.625 34.148438 53.335938 33.875 C 53.226562 33.773438 53.125 33.613281 53 33.398438 C 52.875 33.148438 52.738281 32.960938 52.574219 32.824219 C 52.4375 32.710938 52.175781 32.648438 51.824219 32.648438 C 51.488281 32.648438 51.226562 32.726562 51.039062 32.863281 C 50.8125 33.023438 50.789062 33.175781 50.789062 33.273438 C 50.789062 33.375 50.8125 33.449219 50.863281 33.511719 C 50.925781 33.585938 51 33.664062 51.113281 33.726562 C 51.238281 33.789062 51.363281 33.851562 51.488281 33.886719 C 51.625 33.925781 51.863281 33.988281 52.1875 34.074219 C 52.613281 34.175781 53 34.289062 53.335938 34.398438 C 53.6875 34.523438 54 34.675781 54.261719 34.863281 C 54.523438 35.050781 54.738281 35.300781 54.886719 35.585938 C 55.039062 35.875 55.113281 36.238281 55.113281 36.636719 C 55.113281 37.125 54.988281 37.574219 54.726562 37.976562 C 54.476562 38.363281 54.101562 38.675781 53.613281 38.898438 C 53.1875 39.101562 52.625 39.210938 51.988281 39.210938 Z M 49.726562 36.386719 C 49.601562 36.386719 49.5 36.425781 49.425781 36.511719 C 49.335938 36.601562 49.300781 36.6875 49.300781 36.800781 C 49.300781 37.0625 49.386719 37.335938 49.574219 37.625 C 49.761719 37.925781 50.011719 38.164062 50.3125 38.335938 C 50.75 38.585938 51.3125 38.710938 51.988281 38.710938 C 52.5625 38.710938 53.050781 38.613281 53.460938 38.4375 C 53.863281 38.261719 54.164062 38.011719 54.363281 37.699219 C 54.5625 37.386719 54.664062 37.023438 54.664062 36.636719 C 54.664062 36.3125 54.601562 36.023438 54.488281 35.8125 C 54.375 35.585938 54.210938 35.414062 54.011719 35.261719 C 53.800781 35.113281 53.523438 34.976562 53.210938 34.863281 C 52.886719 34.75 52.523438 34.648438 52.113281 34.550781 C 51.773438 34.460938 51.523438 34.398438 51.386719 34.351562 C 51.226562 34.300781 51.074219 34.238281 50.914062 34.148438 C 50.738281 34.050781 50.601562 33.9375 50.5 33.800781 C 50.386719 33.648438 50.324219 33.476562 50.324219 33.273438 C 50.324219 33.050781 50.398438 32.738281 50.773438 32.460938 C 51.050781 32.261719 51.414062 32.164062 51.851562 32.164062 C 52.324219 32.164062 52.675781 32.261719 52.914062 32.449219 C 53.125 32.625 53.3125 32.875 53.460938 33.1875 C 53.574219 33.386719 53.648438 33.488281 53.699219 33.539062 C 53.789062 33.625 54.0625 33.636719 54.210938 33.460938 C 54.300781 33.363281 54.335938 33.261719 54.335938 33.148438 C 54.335938 32.988281 54.300781 32.824219 54.210938 32.664062 C 54.125 32.488281 53.988281 32.3125 53.800781 32.148438 C 53.613281 31.988281 53.363281 31.851562 53.0625 31.75 C 52.761719 31.648438 52.386719 31.601562 51.976562 31.601562 C 51.449219 31.601562 50.976562 31.675781 50.585938 31.835938 C 50.210938 31.988281 49.925781 32.199219 49.738281 32.476562 C 49.550781 32.75 49.449219 33.0625 49.449219 33.414062 C 49.449219 33.789062 49.539062 34.085938 49.710938 34.335938 C 49.898438 34.585938 50.148438 34.789062 50.460938 34.9375 C 50.800781 35.101562 51.238281 35.238281 51.738281 35.351562 C 52.136719 35.4375 52.460938 35.523438 52.710938 35.613281 C 52.988281 35.699219 53.210938 35.851562 53.386719 36.023438 C 53.585938 36.226562 53.675781 36.488281 53.675781 36.789062 C 53.675781 37.175781 53.5 37.5 53.164062 37.75 C 52.851562 37.988281 52.4375 38.113281 51.9375 38.113281 C 51.574219 38.113281 51.289062 38.050781 51.050781 37.9375 C 50.824219 37.824219 50.636719 37.664062 50.5 37.476562 C 50.375 37.300781 50.273438 37.101562 50.175781 36.835938 C 50.113281 36.675781 50.039062 36.550781 49.960938 36.476562 C 49.898438 36.414062 49.824219 36.386719 49.726562 36.386719 Z M 49.726562 36.386719 "/>
</g>
</svg>
