<svg id="svg" xmlns="http://www.w3.org/2000/svg" xmlns:xlink="http://www.w3.org/1999/xlink" width="400" height="367.07021791767556" viewBox="0, 0, 400,367.07021791767556"><g id="svgg"><path id="path0" d="M105.785 113.597 C 106.319 114.132,113.555 116.995,120.984 119.611 C 125.673 121.262,141.999 128.428,146.740 130.915 C 152.674 134.029,158.343 137.177,160.893 138.773 C 162.200 139.591,163.765 140.569,164.371 140.945 C 174.678 147.349,186.669 157.063,194.582 165.418 C 197.839 168.857,197.924 169.453,195.756 173.626 C 186.358 191.717,184.253 215.212,189.722 240.955 C 191.775 250.618,195.527 261.975,196.958 262.859 C 197.395 263.129,197.164 259.101,196.512 255.096 C 192.824 232.428,194.757 213.637,202.593 195.970 C 208.190 183.352,208.974 183.158,213.966 193.163 C 223.036 211.341,225.343 231.612,221.162 256.373 C 220.109 262.606,220.054 263.609,220.787 263.156 C 221.264 262.861,223.155 259.066,223.612 257.484 C 223.816 256.777,224.650 254.050,225.464 251.423 C 233.920 224.141,232.544 192.248,222.106 173.572 C 219.652 169.181,219.694 169.066,226.138 162.518 C 239.381 149.062,259.984 135.575,282.645 125.527 C 289.801 122.353,292.536 121.249,303.870 116.959 C 307.464 115.599,310.499 114.333,310.615 114.144 C 311.284 113.062,309.873 113.001,303.489 113.835 C 271.453 118.019,241.967 128.382,223.971 141.781 C 221.936 143.297,219.594 145.023,218.767 145.617 C 217.940 146.211,215.554 148.236,213.464 150.116 C 208.717 154.389,208.931 154.397,203.984 149.765 C 190.729 137.353,167.930 125.712,145.638 119.973 C 129.107 115.717,103.872 111.680,105.785 113.597 M143.772 170.609 C 142.622 172.364,144.473 184.375,147.123 192.354 C 150.246 201.758,160.597 215.688,166.774 218.802 C 169.652 220.253,169.466 219.300,166.056 215.110 C 161.815 209.899,160.007 207.226,157.938 203.105 C 152.260 191.796,151.187 179.247,155.899 179.247 C 158.191 179.247,165.588 180.944,170.346 182.561 C 176.297 184.585,177.098 184.530,175.032 182.243 C 169.301 175.901,145.990 167.224,143.772 170.609 M268.184 170.283 C 259.156 172.258,247.503 177.631,242.883 181.949 C 240.541 184.138,241.841 184.650,245.881 183.130 C 250.630 181.342,259.076 179.341,262.184 179.267 C 267.456 179.142,264.382 198.339,257.687 207.346 C 257.237 207.952,256.239 209.357,255.469 210.468 C 254.700 211.579,252.938 213.831,251.553 215.472 C 248.024 219.654,248.497 220.691,252.637 217.846 C 263.580 210.327,272.738 192.686,274.332 176.056 C 274.961 169.496,274.360 168.931,268.184 170.283 M146.127 225.533 C 138.492 226.837,126.853 232.469,125.614 235.459 C 123.536 240.476,146.395 251.316,159.229 251.399 C 166.495 251.447,167.943 250.284,161.892 249.262 C 150.592 247.354,140.477 242.464,137.329 237.389 C 135.908 235.099,139.151 232.015,147.289 227.916 C 149.574 226.766,150.524 226.046,150.175 225.730 C 149.791 225.383,147.623 225.278,146.127 225.533 M268.779 225.454 C 267.120 225.655,268.140 226.807,271.453 228.472 C 276.637 231.079,280.907 234.232,281.035 235.549 C 281.477 240.089,269.044 247.039,256.764 249.117 C 251.289 250.044,250.499 250.440,252.771 251.120 C 258.046 252.698,271.058 250.422,278.604 246.601 C 285.167 243.279,292.746 237.759,292.746 236.302 C 292.746 234.140,282.275 227.963,276.300 226.601 C 272.756 225.792,269.760 225.336,268.779 225.454 " stroke="#FFFFFF" fill="none" stroke-width="3" fill-rule="evenodd"></path><path id="path2" d="M206.244 99.550 C 191.489 102.165,188.390 121.966,201.710 128.523 C 211.679 133.431,223.308 127.039,223.960 116.293 C 224.606 105.644,216.277 97.773,206.244 99.550 M310.744 113.682 C 310.744 113.985,310.909 114.233,311.111 114.233 C 311.313 114.233,311.478 113.985,311.478 113.682 C 311.478 113.379,311.313 113.131,311.111 113.131 C 310.909 113.131,310.744 113.379,310.744 113.682 M113.876 140.698 C 111.801 141.579,111.826 143.588,114.063 155.388 C 115.064 160.666,116.281 164.811,119.182 172.819 C 123.527 184.812,130.935 196.790,139.397 205.503 C 144.276 210.527,144.385 211.203,140.314 211.203 C 126.008 211.203,99.141 222.486,84.695 234.561 C 81.809 236.974,82.548 238.000,91.053 243.385 C 121.411 262.604,151.169 268.270,175.885 259.539 C 183.562 256.827,182.649 256.444,168.662 256.510 C 154.172 256.579,152.297 256.332,140.312 252.780 C 134.688 251.113,131.028 249.655,127.934 247.849 C 126.762 247.165,125.501 246.491,125.132 246.352 C 122.382 245.314,113.866 238.379,113.866 237.178 C 113.866 234.442,127.228 225.718,137.925 221.470 C 150.564 216.450,151.609 216.324,155.923 219.295 C 161.532 223.159,166.987 226.052,168.202 225.808 C 168.575 225.733,166.184 223.107,161.414 218.356 C 151.753 208.732,146.789 202.037,141.446 191.426 C 136.670 181.941,132.282 163.822,134.278 161.826 C 137.300 158.804,158.602 166.458,175.574 176.665 C 184.859 182.250,185.178 182.287,181.730 177.390 C 171.110 162.306,146.368 145.997,128.870 142.547 C 127.789 142.334,125.500 141.833,123.783 141.435 C 119.914 140.537,115.100 140.179,113.876 140.698 M298.072 140.662 C 296.089 140.980,288.456 142.627,285.767 143.318 C 282.501 144.156,274.838 147.239,269.972 149.673 C 263.898 152.711,258.681 156.122,250.803 162.204 C 245.549 166.261,234.343 178.669,234.343 180.429 C 234.343 181.256,236.230 180.312,244.628 175.281 C 259.612 166.305,281.134 158.873,283.586 161.828 C 284.934 163.452,283.168 173.827,279.995 182.920 C 275.279 196.435,262.192 215.041,252.096 222.585 C 243.976 228.653,251.284 226.556,260.973 220.038 C 265.334 217.104,265.669 216.998,268.481 217.654 C 281.159 220.612,303.765 232.934,303.765 236.887 C 303.765 239.329,295.717 245.356,287.598 248.995 C 285.682 249.854,283.444 250.871,282.625 251.255 C 280.914 252.058,271.799 254.574,267.534 255.421 C 261.687 256.582,256.884 256.850,246.740 256.580 C 240.731 256.420,236.915 256.451,236.915 256.661 C 236.915 257.458,238.531 258.318,242.594 259.683 C 260.770 265.789,282.776 264.219,304.943 255.233 C 314.802 251.236,334.134 239.542,334.746 237.205 C 335.519 234.247,314.524 221.441,299.995 216.008 C 292.253 213.113,283.104 211.203,276.982 211.203 C 274.166 211.203,274.696 209.515,278.915 205.050 C 292.358 190.822,301.623 170.964,304.883 149.391 C 306.250 140.338,305.565 139.459,298.072 140.662 M175.864 183.139 C 176.168 183.711,176.165 184.019,175.851 184.333 C 175.531 184.653,175.673 184.757,176.432 184.757 C 177.536 184.757,177.389 183.966,176.085 182.890 C 175.510 182.416,175.490 182.438,175.864 183.139 M241.004 183.931 C 240.533 184.811,242.075 185.252,242.608 184.389 C 242.733 184.187,242.591 184.022,242.293 184.022 C 241.995 184.022,241.682 183.816,241.598 183.564 C 241.504 183.282,241.276 183.422,241.004 183.931 M168.659 218.916 C 168.740 219.288,168.539 219.431,168.044 219.356 C 167.550 219.281,167.713 219.498,168.544 220.018 C 170.387 221.173,171.120 220.823,169.696 219.467 C 169.043 218.846,168.591 218.606,168.659 218.916 M247.714 220.056 C 246.330 221.500,246.716 221.656,248.579 220.405 C 249.865 219.541,250.008 219.335,249.426 219.183 C 248.972 219.064,248.370 219.371,247.714 220.056 M197.166 262.073 C 197.028 263.235,197.116 264.228,197.407 264.782 C 198.096 266.097,198.273 265.026,197.793 262.443 L 197.384 260.239 197.166 262.073 M220.676 263.127 C 219.668 263.893,218.819 266.667,219.593 266.667 C 219.763 266.667,220.111 265.964,220.365 265.106 C 220.620 264.247,220.997 263.338,221.203 263.085 C 221.679 262.501,221.478 262.517,220.676 263.127 " stroke="#FFFFFF" fill="none" stroke-width="3" fill-rule="evenodd"></path></g></svg>